<svg xmlns="http://www.w3.org/2000/svg" width="440" height="900" viewBox="0 0 440 900" role="img" aria-label="Illustrative SIM Hub Android v0.7 dashboard with four navigation tabs, SIM summaries and status">
<rect width="440" height="900" fill="#F6F7FB"/>
<rect x="8" y="8" width="424" height="884" rx="28" fill="#F6F7FB" stroke="#DFE3EF"/>
<text x="27" y="41" font-size="15" fill="#18223A" font-weight="700" font-family="'Noto Sans SC','Microsoft YaHei',Arial,sans-serif">9:41</text>
<text x="366" y="41" font-size="14" fill="#737D91" font-weight="400" font-family="'Noto Sans SC','Microsoft YaHei',Arial,sans-serif">● ●</text>
<rect x="22" y="62" width="42" height="42" rx="13" fill="#574FEA"/>
<path d="M18,2 L10,2 L4,8 L4,20 C4,21.1 4.9,22 6,22 L18,22 C19.1,22 20,21.1 20,20 L20,4 C20,2.9 19.1,2 18,2 Z" transform="translate(32 71) scale(0.9)" fill="#FFFFFF"/>
<text x="80" y="81" font-size="19" fill="#18223A" font-weight="700" font-family="'Noto Sans SC','Microsoft YaHei',Arial,sans-serif">SIM Hub</text>
<text x="80" y="100" font-size="12" fill="#69748C" font-weight="400" font-family="'Noto Sans SC','Microsoft YaHei',Arial,sans-serif">概览</text>
<circle cx="388" cy="83" r="16" fill="#F0F2FB"/>
<path d="M381 83H395M388 76V90" stroke="#574FEA" stroke-width="2" stroke-linecap="round"/>
<rect x="22" y="131" width="396" height="184" rx="20" fill="white" stroke="#E5E8F2"/>
<text x="43" y="170" font-size="23" fill="#18223A" font-weight="700" font-family="'Noto Sans SC','Microsoft YaHei',Arial,sans-serif">运行正常</text>
<rect x="304" y="148" width="94" height="30" rx="15" fill="#EAF7F0"/>
<circle cx="319" cy="163" r="4" fill="#1C9867"/>
<text x="331" y="167" font-size="12" fill="#1C9867" font-weight="700" font-family="'Noto Sans SC','Microsoft YaHei',Arial,sans-serif">已连接</text>
<text x="43" y="198" font-size="13" fill="#66718A" font-weight="400" font-family="'Noto Sans SC','Microsoft YaHei',Arial,sans-serif">私人 SIM 节点 · 常驻中继运行中</text>
<line x1="42" y1="218" x2="397" y2="218" stroke="#EBEEF5"/>
<text x="43" y="246" font-size="12" fill="#69748C" font-weight="400" font-family="'Noto Sans SC','Microsoft YaHei',Arial,sans-serif">最近成功同步</text>
<text x="298" y="246" font-size="13" fill="#1E2940" font-weight="700" font-family="'Noto Sans SC','Microsoft YaHei',Arial,sans-serif">今天 09:40</text>
<text x="43" y="280" font-size="12" fill="#69748C" font-weight="400" font-family="'Noto Sans SC','Microsoft YaHei',Arial,sans-serif">待上传</text>
<text x="357" y="280" font-size="13" fill="#1E2940" font-weight="700" font-family="'Noto Sans SC','Microsoft YaHei',Arial,sans-serif">0 条</text>
<text x="24" y="351" font-size="18" fill="#18223A" font-weight="700" font-family="'Noto Sans SC','Microsoft YaHei',Arial,sans-serif">本机 SIM 卡</text>
<text x="353" y="351" font-size="12" fill="#574FEA" font-weight="400" font-family="'Noto Sans SC','Microsoft YaHei',Arial,sans-serif">查看全部 ›</text>
<rect x="22" y="373" width="396" height="106" rx="20" fill="white" stroke="#E5E8F2"/>
<rect x="42" y="395" width="44" height="44" rx="14" fill="#EFEDFF"/>
<path d="M18,2 L10,2 L4,8 L4,20 C4,21.1 4.9,22 6,22 L18,22 C19.1,22 20,21.1 20,20 L20,4 C20,2.9 19.1,2 18,2 Z" transform="translate(52 405)" fill="#574FEA"/>
<text x="101" y="408" font-size="16" fill="#18223A" font-weight="700" font-family="'Noto Sans SC','Microsoft YaHei',Arial,sans-serif">中国移动</text>
<text x="101" y="430" font-size="12" fill="#68758B" font-weight="400" font-family="'Noto Sans SC','Microsoft YaHei',Arial,sans-serif">SIM 1 · 5G</text>
<rect x="315" y="409" width="85" height="26" rx="13" fill="#EAF7F0"/>
<text x="327" y="426" font-size="11" fill="#19875F" font-weight="400" font-family="'Noto Sans SC','Microsoft YaHei',Arial,sans-serif">服务正常</text>
<rect x="22" y="491" width="396" height="106" rx="20" fill="white" stroke="#E5E8F2"/>
<rect x="42" y="513" width="44" height="44" rx="14" fill="#EFEDFF"/>
<path d="M18,2 L10,2 L4,8 L4,20 C4,21.1 4.9,22 6,22 L18,22 C19.1,22 20,21.1 20,20 L20,4 C20,2.9 19.1,2 18,2 Z" transform="translate(52 523)" fill="#574FEA"/>
<text x="101" y="526" font-size="16" fill="#18223A" font-weight="700" font-family="'Noto Sans SC','Microsoft YaHei',Arial,sans-serif">中国联通</text>
<text x="101" y="548" font-size="12" fill="#68758B" font-weight="400" font-family="'Noto Sans SC','Microsoft YaHei',Arial,sans-serif">SIM 2 · LTE</text>
<rect x="315" y="526" width="85" height="26" rx="13" fill="#EAF7F0"/>
<text x="327" y="543" font-size="11" fill="#19875F" font-weight="400" font-family="'Noto Sans SC','Microsoft YaHei',Arial,sans-serif">服务正常</text>
<text x="24" y="637" font-size="18" fill="#18223A" font-weight="700" font-family="'Noto Sans SC','Microsoft YaHei',Arial,sans-serif">最近短信</text>
<text x="352" y="637" font-size="12" fill="#574FEA" font-weight="400" font-family="'Noto Sans SC','Microsoft YaHei',Arial,sans-serif">查看全部 ›</text>
<rect x="22" y="657" width="396" height="125" rx="20" fill="white" stroke="#E5E8F2"/>
<circle cx="65" cy="699" r="22" fill="#F0F2FF"/>
<path d="M20,2 L4,2 C2.9,2 2,2.9 2,4 L2,22 L6,18 L20,18 C21.1,18 22,17.1 22,16 L22,4 C22,2.9 21.1,2 20,2 Z" transform="translate(53 688)" fill="#574FEA"/>
<text x="103" y="690" font-size="15" fill="#18223A" font-weight="700" font-family="'Noto Sans SC','Microsoft YaHei',Arial,sans-serif">10010</text>
<text x="352" y="690" font-size="11" fill="#7B859C" font-weight="400" font-family="'Noto Sans SC','Microsoft YaHei',Arial,sans-serif">09:40</text>
<text x="103" y="711" font-size="12" fill="#6F7891" font-weight="400" font-family="'Noto Sans SC','Microsoft YaHei',Arial,sans-serif">【中国联通】服务提醒…</text>
<line x1="103" y1="727" x2="397" y2="727" stroke="#EDF0F5"/>
<text x="103" y="753" font-size="12" fill="#6F7891" font-weight="400" font-family="'Noto Sans SC','Microsoft YaHei',Arial,sans-serif">验证码通知 · 已同步</text>
<rect x="8" y="796" width="424" height="96" rx="24" fill="white" stroke="#E4E8F2"/>
<rect x="27" y="808" width="70" height="44" rx="18" fill="#F0EDFF"/><path d="M10,20 L10,14 L14,14 L14,20 L19,20 L19,12 L22,12 L12,3 L2,12 L5,12 L5,20 Z" transform="translate(50 818)" fill="#574FEA"/><text x="49" y="871" font-size="12" fill="#574FEA" font-weight="700" font-family="'Noto Sans SC','Microsoft YaHei',Arial,sans-serif">概览</text>
<path d="M20,2 L4,2 C2.9,2 2,2.9 2,4 L2,22 L6,18 L20,18 C21.1,18 22,17.1 22,16 L22,4 C22,2.9 21.1,2 20,2 Z" transform="translate(154 818)" fill="#8490A5"/><text x="153" y="871" font-size="12" fill="#7B8497" font-weight="400" font-family="'Noto Sans SC','Microsoft YaHei',Arial,sans-serif">短信</text>
<path d="M18,2 L10,2 L4,8 L4,20 C4,21.1 4.9,22 6,22 L18,22 C19.1,22 20,21.1 20,20 L20,4 C20,2.9 19.1,2 18,2 Z" transform="translate(258 818)" fill="#8490A5"/><text x="237.5" y="871" font-size="12" fill="#7B8497" font-weight="400" font-family="'Noto Sans SC','Microsoft YaHei',Arial,sans-serif">SIM 卡</text>
<path d="M19.4,13 A8,8 0,0 0,19.4 11 L21.5,9.4 L19.5,6 L17.1,6.6 A8,8 0,0 0,15.4 5.6 L15,3 L9,3 L8.6,5.6 A8,8 0,0 0,6.9 6.6 L4.5,6 L2.5,9.4 L4.6,11 A8,8 0,0 0,4.6 13 L2.5,14.6 L4.5,18 L6.9,17.4 A8,8 0,0 0,8.6 18.4 L9,21 L15,21 L15.4,18.4 A8,8 0,0 0,17.1 17.4 L19.5,18 L21.5,14.6 Z" transform="translate(362 818)" fill="#8490A5"/><text x="361" y="871" font-size="12" fill="#7B8497" font-weight="400" font-family="'Noto Sans SC','Microsoft YaHei',Arial,sans-serif">设置</text>
</svg>
