<svg xmlns="http://www.w3.org/2000/svg" width="1200" height="704" viewBox="0 0 1200 704" role="img" aria-label="SIM Hub illustrative UI preview"><defs><linearGradient id="gradient" x1="0" y1="0" x2="1" y2="1"><stop stop-color="#756BFF"/><stop offset="1" stop-color="#423BC6"/></linearGradient><linearGradient id="wash" x1="0" y1="0" x2="1" y2="1"><stop stop-color="#1D2947"/><stop offset="1" stop-color="#0C1223"/></linearGradient></defs>
<rect x="0" y="0" width="1200" height="704" rx="22" fill="#0C1223" stroke="none" stroke-width="1"/>
<rect x="16" y="16" width="1168" height="672" rx="22" fill="#0F182B" stroke="#32405A" stroke-width="1"/>
<rect x="16" y="16" width="246" height="672" rx="22" fill="#151E32" stroke="none" stroke-width="1"/>
<path d="M244 16h18v672h-18Z" fill="#151E32"/>
<g transform="translate(40 44) scale(0.65)"><rect width="64" height="64" rx="17" fill="#635BFF"/><path d="M22 13h15l10 10v23a5 5 0 0 1-5 5H22a5 5 0 0 1-5-5V18a5 5 0 0 1 5-5Z" fill="none" stroke="#fff" stroke-width="3.2" stroke-linejoin="round"/><path d="M37 13v10h10" fill="none" stroke="#fff" stroke-width="3.2"/><path d="m25 37 9-8 7 11" fill="none" stroke="#fff" stroke-width="2.8" stroke-linecap="round"/><g fill="#fff"><circle cx="25" cy="37" r="3.2"/><circle cx="34" cy="29" r="3.2"/><circle cx="41" cy="40" r="3.2"/></g><circle cx="50" cy="15" r="6.5" fill="#7EE5B0" stroke="#5E56ED" stroke-width="2.5"/></g>
<text x="95" y="77" fill="#F3F5FF" font-family="Inter,Arial,'Noto Sans',sans-serif" font-size="25" font-weight="750" >SIM Hub</text>
<text x="95" y="100" fill="#A5B1C9" font-family="Inter,Arial,'Noto Sans',sans-serif" font-size="13" font-weight="500" >private relay</text>
<rect x="34" y="153" width="208" height="48" rx="13" fill="#27294D" stroke="none" stroke-width="1"/>
<text x="60" y="183" fill="#B5ACFF" font-family="Inter,Arial,'Noto Sans',sans-serif" font-size="16" font-weight="650" >▣   Inbox</text>
<text x="60" y="244" fill="#ACB8D1" font-family="Inter,Arial,'Noto Sans',sans-serif" font-size="16" font-weight="600" >➤   Send SMS</text>
<text x="60" y="298" fill="#ACB8D1" font-family="Inter,Arial,'Noto Sans',sans-serif" font-size="16" font-weight="600" >▯   Devices</text>
<text x="60" y="352" fill="#ACB8D1" font-family="Inter,Arial,'Noto Sans',sans-serif" font-size="16" font-weight="600" >⚙   Settings</text>
<circle cx="52" cy="636" r="5" fill="#7EE5B0"/>
<text x="66" y="641" fill="#AAB8D2" font-family="Inter,Arial,'Noto Sans',sans-serif" font-size="13" font-weight="500" >Relay connected</text>
<text x="307" y="82" fill="#F0F4FF" font-family="Inter,Arial,'Noto Sans',sans-serif" font-size="35" font-weight="750" >Inbox</text>
<text x="307" y="110" fill="#A5B3D0" font-family="Inter,Arial,'Noto Sans',sans-serif" font-size="15" font-weight="500" >End-to-end encrypted SMS</text>
<rect x="1006" y="57" width="112" height="32" rx="16" fill="#232E48" stroke="none" stroke-width="1"/><text x="1020" y="78" fill="#F0F4FF" font-family="Inter,Arial,'Noto Sans',sans-serif" font-size="13" font-weight="600" >Refresh</text>
<rect x="307" y="141" width="824" height="78" rx="18" fill="#151E32" stroke="#33415A" stroke-width="1"/>
<rect x="327" y="160" width="405" height="42" rx="11" fill="#1D2A43" stroke="#3A4865" stroke-width="1"/>
<text x="350" y="187" fill="#8595B6" font-family="Inter,Arial,'Noto Sans',sans-serif" font-size="14" font-weight="500" >Search decrypted SMS locally…</text>
<rect x="749" y="160" width="177" height="42" rx="11" fill="#1D2A43" stroke="none" stroke-width="1"/>
<text x="763" y="187" fill="#E0E8F7" font-family="Inter,Arial,'Noto Sans',sans-serif" font-size="14" font-weight="500" >All devices</text>
<rect x="939" y="160" width="172" height="42" rx="11" fill="#1D2A43" stroke="none" stroke-width="1"/>
<text x="953" y="187" fill="#E0E8F7" font-family="Inter,Arial,'Noto Sans',sans-serif" font-size="14" font-weight="500" >All messages</text>
<rect x="307" y="239" width="824" height="144" rx="19" fill="#151E32" stroke="#33415A" stroke-width="1"/>
<rect x="329" y="259" width="48" height="48" rx="14" fill="#292F58" stroke="none" stroke-width="1"/>
<text x="345" y="291" fill="#B7ADFF" font-family="Inter,Arial,'Noto Sans',sans-serif" font-size="23" font-weight="750" >S</text>
<text x="398" y="275" fill="#F0F4FF" font-family="Inter,Arial,'Noto Sans',sans-serif" font-size="16" font-weight="700" >Sample sender</text>
<text x="1010" y="275" fill="#A2AFC8" font-family="Inter,Arial,'Noto Sans',sans-serif" font-size="12" font-weight="500" >Example · 12:30</text>
<text x="398" y="303" fill="#C4CEE2" font-family="Inter,Arial,'Noto Sans',sans-serif" font-size="14" font-weight="500" >Your confirmation code is hidden in this preview.</text>
<rect x="398" y="324" width="156" height="32" rx="16" fill="#3F3440" stroke="none" stroke-width="1"/><text x="412" y="345" fill="#F2C779" font-family="Inter,Arial,'Noto Sans',sans-serif" font-size="13" font-weight="600" >OTP · ••••••</text>
<rect x="307" y="399" width="824" height="118" rx="19" fill="#151E32" stroke="#33415A" stroke-width="1"/>
<rect x="329" y="420" width="48" height="48" rx="14" fill="#293354" stroke="none" stroke-width="1"/>
<text x="343" y="453" fill="#B7ADFF" font-family="Inter,Arial,'Noto Sans',sans-serif" font-size="23" font-weight="750" >N</text>
<text x="398" y="439" fill="#F0F4FF" font-family="Inter,Arial,'Noto Sans',sans-serif" font-size="16" font-weight="700" >Example notification</text>
<text x="1000" y="439" fill="#A2AFC8" font-family="Inter,Arial,'Noto Sans',sans-serif" font-size="12" font-weight="500" >Example · 09:18</text>
<text x="398" y="468" fill="#C4CEE2" font-family="Inter,Arial,'Noto Sans',sans-serif" font-size="14" font-weight="500" >Securely delivered through your self-hosted relay.</text>
<rect x="307" y="536" width="395" height="118" rx="18" fill="#151E32" stroke="#33415A" stroke-width="1"/>
<text x="332" y="569" fill="#F0F4FF" font-family="Inter,Arial,'Noto Sans',sans-serif" font-size="18" font-weight="700" >Devices</text>
<text x="332" y="601" fill="#C4CEE2" font-family="Inter,Arial,'Noto Sans',sans-serif" font-size="15" font-weight="500" >Android SIM Node</text>
<rect x="586" y="573" width="92" height="32" rx="16" fill="#194C3D" stroke="none" stroke-width="1"/><text x="600" y="594" fill="#7EE5B0" font-family="Inter,Arial,'Noto Sans',sans-serif" font-size="13" font-weight="600" >Online</text>
<rect x="719" y="536" width="412" height="118" rx="18" fill="#151E32" stroke="#33415A" stroke-width="1"/>
<text x="744" y="569" fill="#F0F4FF" font-family="Inter,Arial,'Noto Sans',sans-serif" font-size="18" font-weight="700" >Privacy</text>
<text x="744" y="599" fill="#C4CEE2" font-family="Inter,Arial,'Noto Sans',sans-serif" font-size="15" font-weight="500" >Encrypted on the endpoint</text>
<text x="744" y="627" fill="#9EACC7" font-family="Inter,Arial,'Noto Sans',sans-serif" font-size="13" font-weight="500" >Your relay cannot read SMS bodies.</text>
<rect x="934" y="658" width="190" height="32" rx="16" fill="#263550" stroke="none" stroke-width="1"/><text x="948" y="679" fill="#A8B6D0" font-family="Inter,Arial,'Noto Sans',sans-serif" font-size="13" font-weight="600" >DEMO / 示例界面</text>
</svg>